<svg width="25" height="24" viewBox="0 0 25 24" fill="none" xmlns="http://www.w3.org/2000/svg">
<path d="M23.06 12.25C23.06 11.47 22.99 10.72 22.86 10H12.5V14.255H18.42C18.165 15.63 17.39 16.795 16.225 17.575V20.335H19.78C21.86 18.42 23.06 15.6 23.06 12.25Z" fill="#4285F4"/>
<path d="M12.5 23.0001C15.47 23.0001 17.96 22.0151 19.78 20.3351L16.225 17.5751C15.24 18.2351 13.98 18.6251 12.5 18.6251C9.63504 18.6251 7.21004 16.6901 6.34504 14.0901H2.67004V16.9401C4.48004 20.5351 8.20004 23.0001 12.5 23.0001Z" fill="#34A853"/>
<path d="M6.345 14.0901C6.125 13.4301 6 12.7251 6 12.0001C6 11.2751 6.125 10.5701 6.345 9.91006V7.06006H2.67C1.9 8.59292 1.49932 10.2847 1.5 12.0001C1.5 13.7751 1.925 15.4551 2.67 16.9401L6.345 14.0901Z" fill="#FBBC05"/>
<path d="M12.5 5.375C14.115 5.375 15.565 5.93 16.705 7.02L19.86 3.865C17.955 2.09 15.465 1 12.5 1C8.20004 1 4.48004 3.465 2.67004 7.06L6.34504 9.91C7.21004 7.31 9.63504 5.375 12.5 5.375Z" fill="#EA4335"/>
</svg>
