<svg width="40" height="40" viewBox="0 0 40 40" fill="none" xmlns="http://www.w3.org/2000/svg">
<rect width="40" height="40" rx="8" fill="#F4F4F5"/>
<g clip-path="url(#clip0_252_9377)">
<path d="M33.3334 20.0001C33.3334 27.3634 27.3634 33.3334 20 33.3334C12.6367 33.3334 6.66669 27.3634 6.66669 20.0001C6.66669 12.6367 12.6367 6.66675 20 6.66675C27.3634 6.66675 33.3334 12.6367 33.3334 20.0001Z" fill="#FF4E4C"/>
<path d="M20 30.6666C25.891 30.6666 30.6666 25.891 30.6666 19.9999C30.6666 14.1089 25.891 9.33325 20 9.33325C14.1089 9.33325 9.33331 14.1089 9.33331 19.9999C9.33331 25.891 14.1089 30.6666 20 30.6666Z" fill="#FFCDCC"/>
<path d="M28 20C28 24.418 24.418 28 20 28C15.582 28 12 24.418 12 20C12 15.582 15.582 12 20 12C24.418 12 28 15.582 28 20Z" fill="#FF4E4C"/>
<path d="M20 25.3334C22.9455 25.3334 25.3334 22.9456 25.3334 20.0001C25.3334 17.0546 22.9455 14.6667 20 14.6667C17.0545 14.6667 14.6667 17.0546 14.6667 20.0001C14.6667 22.9456 17.0545 25.3334 20 25.3334Z" fill="#FFCDCC"/>
<path d="M22.6666 19.9999C22.6666 21.4726 21.4726 22.6666 20 22.6666C18.5273 22.6666 17.3333 21.4726 17.3333 19.9999C17.3333 18.5273 18.5273 17.3333 20 17.3333C21.4726 17.3333 22.6666 18.5273 22.6666 19.9999Z" fill="#FF4E4C"/>
<path opacity="0.05" d="M28.4367 9.67798L19.4653 18.6493C18.9447 19.17 18.9447 20.014 19.4653 20.5347C19.7253 20.7953 20.0667 20.9253 20.408 20.9253C20.7493 20.9253 21.0907 20.7953 21.3507 20.5347L30.322 11.5633C29.7573 10.874 29.126 10.2426 28.4367 9.67798Z" fill="#4D4845" fill-opacity="0.9"/>
<path opacity="0.07" d="M28.6853 9.90063L19.4973 19.0886C19.1067 19.4793 19.1067 20.112 19.4973 20.5026C19.6927 20.698 19.9487 20.7953 20.2047 20.7953C20.4607 20.7953 20.7167 20.698 20.912 20.5026L30.1 11.3146C29.668 10.8046 29.1953 10.332 28.6853 9.90063Z" fill="#4D4845" fill-opacity="0.9"/>
<path d="M27.3353 12.6647V10.162C27.3353 9.63132 27.546 9.12265 27.9213 8.74799L29.8593 6.80999C30.1573 6.51199 30.6673 6.72265 30.6673 7.14465V9.33332H32.8567C33.2787 9.33332 33.49 9.84332 33.1913 10.1413L31.2527 12.08C30.8773 12.4553 30.368 12.666 29.8373 12.666L27.3353 12.6647Z" fill="#3D785F"/>
<path d="M20 20.6666C19.8294 20.6666 19.6587 20.6013 19.5287 20.4713C19.268 20.2106 19.268 19.7893 19.5287 19.5286L30.862 8.19526C31.1227 7.93459 31.544 7.93459 31.8047 8.19526C32.0654 8.45592 32.0654 8.87726 31.8047 9.13792L20.4714 20.4713C20.3414 20.6013 20.1707 20.6666 20 20.6666Z" fill="#D99650"/>
</g>
<defs>
<clipPath id="clip0_252_9377">
<rect width="32" height="32" fill="white" transform="translate(4 4)"/>
</clipPath>
</defs>
</svg>
