<svg width="28" height="28" viewBox="0 0 28 28" fill="none" xmlns="http://www.w3.org/2000/svg">
<rect width="28" height="28" rx="14" fill="white"/>
<g clip-path="url(#clip0_242_3671)">
<path d="M19 15C19.0012 15.2039 18.9393 15.4031 18.8227 15.5703C18.7061 15.7375 18.5405 15.8645 18.3487 15.9338L15.125 17.125L13.9375 20.3512C13.8672 20.5423 13.7399 20.7072 13.573 20.8236C13.406 20.9401 13.2073 21.0025 13.0037 21.0025C12.8002 21.0025 12.6015 20.9401 12.4345 20.8236C12.2675 20.7072 12.1403 20.5423 12.07 20.3512L10.875 17.125L7.64873 15.9375C7.45768 15.8672 7.29281 15.7399 7.17634 15.573C7.05988 15.406 6.99744 15.2073 6.99744 15.0037C6.99744 14.8002 7.05988 14.6015 7.17634 14.4345C7.29281 14.2676 7.45768 14.1403 7.64873 14.07L10.875 12.875L12.0625 9.64875C12.1328 9.45771 12.26 9.29283 12.427 9.17637C12.594 9.0599 12.7927 8.99746 12.9962 8.99746C13.1998 8.99746 13.3985 9.0599 13.5655 9.17637C13.7324 9.29283 13.8597 9.45771 13.93 9.64875L15.125 12.875L18.3512 14.0625C18.5431 14.1324 18.7086 14.2601 18.8248 14.428C18.941 14.5959 19.0022 14.7958 19 15ZM15.5 9H16.5V10C16.5 10.1326 16.5527 10.2598 16.6464 10.3536C16.7402 10.4473 16.8674 10.5 17 10.5C17.1326 10.5 17.2598 10.4473 17.3535 10.3536C17.4473 10.2598 17.5 10.1326 17.5 10V9H18.5C18.6326 9 18.7598 8.94732 18.8535 8.85355C18.9473 8.75979 19 8.63261 19 8.5C19 8.36739 18.9473 8.24021 18.8535 8.14645C18.7598 8.05268 18.6326 8 18.5 8H17.5V7C17.5 6.86739 17.4473 6.74021 17.3535 6.64645C17.2598 6.55268 17.1326 6.5 17 6.5C16.8674 6.5 16.7402 6.55268 16.6464 6.64645C16.5527 6.74021 16.5 6.86739 16.5 7V8H15.5C15.3674 8 15.2402 8.05268 15.1464 8.14645C15.0527 8.24021 15 8.36739 15 8.5C15 8.63261 15.0527 8.75979 15.1464 8.85355C15.2402 8.94732 15.3674 9 15.5 9ZM21 11H20.5V10.5C20.5 10.3674 20.4473 10.2402 20.3535 10.1464C20.2598 10.0527 20.1326 10 20 10C19.8674 10 19.7402 10.0527 19.6464 10.1464C19.5527 10.2402 19.5 10.3674 19.5 10.5V11H19C18.8674 11 18.7402 11.0527 18.6464 11.1464C18.5527 11.2402 18.5 11.3674 18.5 11.5C18.5 11.6326 18.5527 11.7598 18.6464 11.8536C18.7402 11.9473 18.8674 12 19 12H19.5V12.5C19.5 12.6326 19.5527 12.7598 19.6464 12.8536C19.7402 12.9473 19.8674 13 20 13C20.1326 13 20.2598 12.9473 20.3535 12.8536C20.4473 12.7598 20.5 12.6326 20.5 12.5V12H21C21.1326 12 21.2598 11.9473 21.3535 11.8536C21.4473 11.7598 21.5 11.6326 21.5 11.5C21.5 11.3674 21.4473 11.2402 21.3535 11.1464C21.2598 11.0527 21.1326 11 21 11Z" fill="#29715B"/>
</g>
<defs>
<clipPath id="clip0_242_3671">
<rect width="16" height="16" fill="white" transform="translate(6 6)"/>
</clipPath>
</defs>
</svg>
