<svg width="45" height="50" viewBox="0 0 45 50" fill="none" xmlns="http://www.w3.org/2000/svg">
<rect y="0.5" width="45" height="32" rx="16" fill="#29715B"/>
<path d="M14.75 10.5L14.75 22.5C14.75 22.8978 14.908 23.2794 15.1893 23.5607C15.4706 23.842 15.8522 24 16.25 24H28.25C28.6478 24 29.0294 23.842 29.3107 23.5607C29.592 23.2794 29.75 22.8978 29.75 22.5V10.5C29.75 10.1022 29.592 9.72064 29.3107 9.43934C29.0294 9.15804 28.6478 9 28.25 9H16.25C15.8522 9 15.4706 9.15804 15.1893 9.43934C14.908 9.72064 14.75 10.1022 14.75 10.5ZM28.25 10.5V22.5H16.25V10.5H28.25ZM15.5 6H29C29.1989 6 29.3897 6.07902 29.5303 6.21967C29.671 6.36032 29.75 6.55109 29.75 6.75C29.75 6.94891 29.671 7.13968 29.5303 7.28033C29.3897 7.42098 29.1989 7.5 29 7.5H15.5C15.3011 7.5 15.1103 7.42098 14.9697 7.28033C14.829 7.13968 14.75 6.94891 14.75 6.75C14.75 6.55109 14.829 6.36032 14.9697 6.21967C15.1103 6.07902 15.3011 6 15.5 6ZM15.5 25.5H29C29.1989 25.5 29.3897 25.579 29.5303 25.7197C29.671 25.8603 29.75 26.0511 29.75 26.25C29.75 26.4489 29.671 26.6397 29.5303 26.7803C29.3897 26.921 29.1989 27 29 27H15.5C15.3011 27 15.1103 26.921 14.9697 26.7803C14.829 26.6397 14.75 26.4489 14.75 26.25C14.75 26.0511 14.829 25.8603 14.9697 25.7197C15.1103 25.579 15.3011 25.5 15.5 25.5Z" fill="white"/>
<path d="M7.39 42.49H8.79C8.384 44.17 6.956 45.57 4.94 45.57C2.7 45.57 0.74 43.61 0.74 41.09C0.74 38.57 2.7 36.61 4.94 36.61C6.9 36.61 8.314 38.01 8.72 39.69H7.32C7.026 38.64 6.228 37.8 4.94 37.8C3.484 37.8 2.07 39.186 2.07 41.09C2.07 42.994 3.484 44.38 4.94 44.38C6.298 44.38 7.096 43.526 7.39 42.49ZM12.2851 44.38C13.1951 44.38 14.0351 43.54 14.0351 42.35C14.0351 41.16 13.1951 40.32 12.2851 40.32C11.3751 40.32 10.5351 41.16 10.5351 42.35C10.5351 43.54 11.3751 44.38 12.2851 44.38ZM12.2851 45.57C10.6051 45.57 9.27508 44.24 9.27508 42.35C9.27508 40.46 10.6051 39.13 12.2851 39.13C13.9651 39.13 15.2951 40.46 15.2951 42.35C15.2951 44.24 13.9651 45.57 12.2851 45.57ZM16.2051 45.5V39.2H17.1151L17.3951 39.83C17.5211 39.704 17.6611 39.578 17.8291 39.48C18.1231 39.312 18.5851 39.13 19.2151 39.13C20.6151 39.13 21.7351 40.25 21.7351 41.86V45.5H20.4751V41.86C20.4751 41.034 19.7891 40.32 19.0051 40.32C18.1511 40.32 17.4651 41.034 17.4651 41.86V45.5H16.2051ZM23.4818 43.4V40.39H22.3618V39.2H22.8518C23.3418 39.2 23.6918 38.85 23.6918 38.36V37.52H24.7418V39.2H26.1418V40.39H24.7418V43.4C24.7418 43.96 25.1618 44.38 25.7218 44.38C25.8198 44.38 25.9178 44.366 26.0158 44.352L26.1418 44.31V45.43C26.0858 45.458 26.0158 45.486 25.9458 45.5C25.8058 45.542 25.6378 45.57 25.4418 45.57C24.3218 45.57 23.4818 44.73 23.4818 43.4ZM31.1145 43.68H32.4445C32.0385 44.73 31.1845 45.57 29.7145 45.57C28.0345 45.57 26.7045 44.24 26.7045 42.35C26.7045 40.46 28.0205 39.13 29.6445 39.13C31.2685 39.13 32.5845 40.46 32.5845 42.35C32.5845 42.504 32.5565 42.644 32.5425 42.742L32.5145 42.91H28.0345C28.1045 43.694 28.8045 44.38 29.7145 44.38C30.4845 44.38 30.9045 43.96 31.1145 43.68ZM28.0345 41.86H31.3945C31.2405 40.95 30.6385 40.32 29.6445 40.32C28.8045 40.32 28.1885 40.95 28.0345 41.86ZM33.4978 45.5V39.2H34.4078L34.6878 39.83C34.8138 39.704 34.9538 39.578 35.1218 39.48C35.4158 39.312 35.8778 39.13 36.5078 39.13C37.9078 39.13 39.0278 40.25 39.0278 41.86V45.5H37.7678V41.86C37.7678 41.034 37.0818 40.32 36.2978 40.32C35.4438 40.32 34.7578 41.034 34.7578 41.86V45.5H33.4978ZM40.7745 43.4V40.39H39.6545V39.2H40.1445C40.6345 39.2 40.9845 38.85 40.9845 38.36V37.52H42.0345V39.2H43.4345V40.39H42.0345V43.4C42.0345 43.96 42.4545 44.38 43.0145 44.38C43.1125 44.38 43.2105 44.366 43.3085 44.352L43.4345 44.31V45.43C43.3785 45.458 43.3085 45.486 43.2385 45.5C43.0985 45.542 42.9305 45.57 42.7345 45.57C41.6145 45.57 40.7745 44.73 40.7745 43.4Z" fill="#29715B"/>
</svg>
