<svg width="52" height="53" viewBox="0 0 52 53" fill="none" xmlns="http://www.w3.org/2000/svg">
<path d="M18.5 10V22C18.5 22.3978 18.658 22.7794 18.9393 23.0607C19.2206 23.342 19.6022 23.5 20 23.5H32C32.3978 23.5 32.7794 23.342 33.0607 23.0607C33.342 22.7794 33.5 22.3978 33.5 22V10C33.5 9.60217 33.342 9.22064 33.0607 8.93934C32.7794 8.65804 32.3978 8.5 32 8.5H20C19.6022 8.5 19.2206 8.65804 18.9393 8.93934C18.658 9.22064 18.5 9.60217 18.5 10ZM32 10V22H20V10H32ZM19.25 5.5H32.75C32.9489 5.5 33.1397 5.57902 33.2803 5.71967C33.421 5.86032 33.5 6.05109 33.5 6.25C33.5 6.44891 33.421 6.63968 33.2803 6.78033C33.1397 6.92098 32.9489 7 32.75 7H19.25C19.0511 7 18.8603 6.92098 18.7197 6.78033C18.579 6.63968 18.5 6.44891 18.5 6.25C18.5 6.05109 18.579 5.86032 18.7197 5.71967C18.8603 5.57902 19.0511 5.5 19.25 5.5ZM19.25 25H32.75C32.9489 25 33.1397 25.079 33.2803 25.2197C33.421 25.3603 33.5 25.5511 33.5 25.75C33.5 25.9489 33.421 26.1397 33.2803 26.2803C33.1397 26.421 32.9489 26.5 32.75 26.5H19.25C19.0511 26.5 18.8603 26.421 18.7197 26.2803C18.579 26.1397 18.5 25.9489 18.5 25.75C18.5 25.5511 18.579 25.3603 18.7197 25.2197C18.8603 25.079 19.0511 25 19.25 25Z" fill="#71717A"/>
<path d="M11.71 42.06H12.9C12.41 43.74 11.08 45.07 9.12 45.07C6.95 45.07 4.99 43.11 4.99 40.59C4.99 38.07 6.95 36.11 9.12 36.11C11.01 36.11 12.34 37.44 12.83 39.12H11.64C11.346 38 10.464 37.09 9.12 37.09C7.58 37.09 6.11 38.56 6.11 40.59C6.11 42.62 7.58 44.09 9.12 44.09C10.534 44.09 11.416 43.18 11.71 42.06ZM16.3284 44.09C17.2944 44.09 18.2184 43.194 18.2184 41.85C18.2184 40.506 17.2944 39.61 16.3284 39.61C15.3484 39.61 14.4384 40.506 14.4384 41.85C14.4384 43.194 15.3484 44.09 16.3284 44.09ZM16.3284 45.07C14.7044 45.07 13.3884 43.74 13.3884 41.85C13.3884 39.96 14.7044 38.63 16.3284 38.63C17.9524 38.63 19.2684 39.96 19.2684 41.85C19.2684 43.74 17.9524 45.07 16.3284 45.07ZM20.2516 45V38.7H21.0216L21.3016 39.4C21.4276 39.26 21.5816 39.134 21.7636 39.022C22.0856 38.812 22.5196 38.63 23.1216 38.63C24.4516 38.63 25.5716 39.75 25.5716 41.36V45H24.5216V41.36C24.5216 40.31 23.8076 39.61 22.9816 39.61C21.9876 39.61 21.3016 40.296 21.3016 41.36V45H20.2516ZM27.39 42.97V39.68H26.27V38.7H26.76C27.278 38.7 27.53 38.448 27.53 37.93V37.02H28.44V38.7H29.84V39.68H28.44V42.97C28.44 43.684 28.86 44.09 29.49 44.09C29.588 44.09 29.672 44.076 29.742 44.062L29.84 44.02V44.93C29.798 44.958 29.742 44.986 29.686 45C29.56 45.042 29.406 45.07 29.21 45.07C28.244 45.07 27.39 44.23 27.39 42.97ZM34.9577 43.32H36.0777C35.6577 44.23 34.8177 45.07 33.4177 45.07C31.7377 45.07 30.4077 43.74 30.4077 41.85C30.4077 39.96 31.8217 38.63 33.3477 38.63C34.8877 38.63 36.2177 39.876 36.2177 41.78C36.2177 41.962 36.1897 42.088 36.1757 42.186L36.1477 42.34H31.5277C31.5977 43.25 32.4237 44.09 33.4177 44.09C34.2437 44.09 34.7477 43.614 34.9577 43.32ZM31.5277 41.43H35.1677C35.0137 40.38 34.2577 39.61 33.3477 39.61C32.4377 39.61 31.6817 40.38 31.5277 41.43ZM37.2026 45V38.7H37.9726L38.2526 39.4C38.3786 39.26 38.5326 39.134 38.7146 39.022C39.0366 38.812 39.4706 38.63 40.0726 38.63C41.4026 38.63 42.5226 39.75 42.5226 41.36V45H41.4726V41.36C41.4726 40.31 40.7586 39.61 39.9326 39.61C38.9386 39.61 38.2526 40.296 38.2526 41.36V45H37.2026ZM44.3409 42.97V39.68H43.2209V38.7H43.7109C44.2289 38.7 44.4809 38.448 44.4809 37.93V37.02H45.3909V38.7H46.7909V39.68H45.3909V42.97C45.3909 43.684 45.8109 44.09 46.4409 44.09C46.5389 44.09 46.6229 44.076 46.6929 44.062L46.7909 44.02V44.93C46.7489 44.958 46.6929 44.986 46.6369 45C46.5109 45.042 46.3569 45.07 46.1609 45.07C45.1949 45.07 44.3409 44.23 44.3409 42.97Z" fill="#71717A"/>
</svg>
