<svg width="53" height="53" viewBox="0 0 53 53" fill="none" xmlns="http://www.w3.org/2000/svg">
<path d="M35.5 16C35.5 16.1989 35.421 16.3897 35.2803 16.5303C35.1397 16.671 34.9489 16.75 34.75 16.75H27.25V24.25C27.25 24.4489 27.171 24.6397 27.0303 24.7803C26.8897 24.921 26.6989 25 26.5 25C26.3011 25 26.1103 24.921 25.9697 24.7803C25.829 24.6397 25.75 24.4489 25.75 24.25V16.75H18.25C18.0511 16.75 17.8603 16.671 17.7197 16.5303C17.579 16.3897 17.5 16.1989 17.5 16C17.5 15.8011 17.579 15.6103 17.7197 15.4697C17.8603 15.329 18.0511 15.25 18.25 15.25H25.75V7.75C25.75 7.55109 25.829 7.36032 25.9697 7.21967C26.1103 7.07902 26.3011 7 26.5 7C26.6989 7 26.8897 7.07902 27.0303 7.21967C27.171 7.36032 27.25 7.55109 27.25 7.75V15.25H34.75C34.9489 15.25 35.1397 15.329 35.2803 15.4697C35.421 15.6103 35.5 15.8011 35.5 16Z" fill="#71717A"/>
<path d="M15.71 42.06H16.9C16.41 43.74 15.08 45.07 13.12 45.07C10.95 45.07 8.99 43.11 8.99 40.59C8.99 38.07 10.95 36.11 13.12 36.11C15.01 36.11 16.34 37.44 16.83 39.12H15.64C15.346 38 14.464 37.09 13.12 37.09C11.58 37.09 10.11 38.56 10.11 40.59C10.11 42.62 11.58 44.09 13.12 44.09C14.534 44.09 15.416 43.18 15.71 42.06ZM17.8084 45V38.7H18.5784L18.8584 39.4C18.9844 39.26 19.1384 39.134 19.3204 39.022C19.6424 38.812 20.0764 38.63 20.6784 38.63H20.8184V39.68H20.5384C19.5444 39.68 18.8584 40.366 18.8584 41.43V45H17.8084ZM25.7156 43.32H26.8356C26.4156 44.23 25.5756 45.07 24.1756 45.07C22.4956 45.07 21.1656 43.74 21.1656 41.85C21.1656 39.96 22.5796 38.63 24.1056 38.63C25.6456 38.63 26.9756 39.876 26.9756 41.78C26.9756 41.962 26.9476 42.088 26.9336 42.186L26.9056 42.34H22.2856C22.3556 43.25 23.1816 44.09 24.1756 44.09C25.0016 44.09 25.5056 43.614 25.7156 43.32ZM22.2856 41.43H25.9256C25.7716 40.38 25.0156 39.61 24.1056 39.61C23.1956 39.61 22.4396 40.38 22.2856 41.43ZM31.9505 45L31.6705 44.3C31.5305 44.454 31.3765 44.58 31.1945 44.692C30.8725 44.902 30.4105 45.07 29.7805 45.07C28.5205 45.07 27.6805 44.23 27.6805 43.18C27.6805 41.99 28.5205 41.15 31.6705 41.15V40.8C31.6705 40.17 31.1245 39.61 30.3405 39.61C29.5565 39.61 29.2345 39.96 29.0805 40.52H27.9605C28.1145 39.47 28.9405 38.63 30.3405 38.63C31.7405 38.63 32.7205 39.624 32.7205 40.8V45H31.9505ZM31.6705 42.62V42.13C29.1505 42.13 28.7305 42.55 28.7305 43.25C28.7305 43.684 29.1505 44.09 29.7805 44.09C30.9005 44.09 31.6705 43.32 31.6705 42.62ZM34.4016 42.97V39.68H33.2816V38.7H33.7716C34.2896 38.7 34.5416 38.448 34.5416 37.93V37.02H35.4516V38.7H36.8516V39.68H35.4516V42.97C35.4516 43.684 35.8716 44.09 36.5016 44.09C36.5996 44.09 36.6836 44.076 36.7536 44.062L36.8516 44.02V44.93C36.8096 44.958 36.7536 44.986 36.6976 45C36.5716 45.042 36.4176 45.07 36.2216 45.07C35.2556 45.07 34.4016 44.23 34.4016 42.97ZM41.9693 43.32H43.0893C42.6693 44.23 41.8293 45.07 40.4293 45.07C38.7493 45.07 37.4193 43.74 37.4193 41.85C37.4193 39.96 38.8333 38.63 40.3593 38.63C41.8993 38.63 43.2293 39.876 43.2293 41.78C43.2293 41.962 43.2013 42.088 43.1873 42.186L43.1593 42.34H38.5393C38.6093 43.25 39.4353 44.09 40.4293 44.09C41.2553 44.09 41.7593 43.614 41.9693 43.32ZM38.5393 41.43H42.1793C42.0253 40.38 41.2693 39.61 40.3593 39.61C39.4493 39.61 38.6933 40.38 38.5393 41.43Z" fill="#71717A"/>
</svg>
