<svg width="45" height="50" viewBox="0 0 45 50" fill="none" xmlns="http://www.w3.org/2000/svg">
<rect y="0.5" width="45" height="32" rx="16" fill="#29715B"/>
<path d="M31.5 16.5C31.5 16.6989 31.421 16.8897 31.2803 17.0303C31.1397 17.171 30.9489 17.25 30.75 17.25H23.25V24.75C23.25 24.9489 23.171 25.1397 23.0303 25.2803C22.8897 25.421 22.6989 25.5 22.5 25.5C22.3011 25.5 22.1103 25.421 21.9697 25.2803C21.829 25.1397 21.75 24.9489 21.75 24.75V17.25H14.25C14.0511 17.25 13.8603 17.171 13.7197 17.0303C13.579 16.8897 13.5 16.6989 13.5 16.5C13.5 16.3011 13.579 16.1103 13.7197 15.9697C13.8603 15.829 14.0511 15.75 14.25 15.75H21.75V8.25C21.75 8.05109 21.829 7.86032 21.9697 7.71967C22.1103 7.57902 22.3011 7.5 22.5 7.5C22.6989 7.5 22.8897 7.57902 23.0303 7.71967C23.171 7.86032 23.25 8.05109 23.25 8.25V15.75H30.75C30.9489 15.75 31.1397 15.829 31.2803 15.9697C31.421 16.1103 31.5 16.3011 31.5 16.5Z" fill="white"/>
<path d="M11.64 42.49H13.04C12.634 44.17 11.206 45.57 9.19 45.57C6.95 45.57 4.99 43.61 4.99 41.09C4.99 38.57 6.95 36.61 9.19 36.61C11.15 36.61 12.564 38.01 12.97 39.69H11.57C11.276 38.64 10.478 37.8 9.19 37.8C7.734 37.8 6.32 39.186 6.32 41.09C6.32 42.994 7.734 44.38 9.19 44.38C10.548 44.38 11.346 43.526 11.64 42.49ZM13.8751 45.5V39.2H14.7851L15.0651 39.83C15.1771 39.704 15.3171 39.578 15.4711 39.48C15.7371 39.312 16.1291 39.13 16.6751 39.13C16.8291 39.13 16.9131 39.158 16.9831 39.172L17.0951 39.2V40.46L16.9691 40.432C16.8711 40.418 16.7731 40.39 16.6751 40.39C15.8211 40.39 15.1351 41.104 15.1351 41.93V45.5H13.8751ZM21.8491 43.68H23.1791C22.7731 44.73 21.9191 45.57 20.4491 45.57C18.7691 45.57 17.4391 44.24 17.4391 42.35C17.4391 40.46 18.7551 39.13 20.3791 39.13C22.0031 39.13 23.3191 40.46 23.3191 42.35C23.3191 42.504 23.2911 42.644 23.2771 42.742L23.2491 42.91H18.7691C18.8391 43.694 19.5391 44.38 20.4491 44.38C21.2191 44.38 21.6391 43.96 21.8491 43.68ZM18.7691 41.86H22.1291C21.9751 40.95 21.3731 40.32 20.3791 40.32C19.5391 40.32 18.9231 40.95 18.7691 41.86ZM28.2223 45.5L27.9423 44.87C27.8163 44.996 27.6763 45.122 27.5083 45.22C27.2143 45.402 26.7523 45.57 26.1223 45.57C24.7223 45.57 23.9523 44.8 23.9523 43.68C23.9523 42.42 24.7923 41.58 27.8723 41.58V41.37C27.8723 40.74 27.4663 40.32 26.6823 40.32C25.8423 40.32 25.4923 40.656 25.4223 41.09H24.1623C24.2323 39.97 25.1283 39.13 26.6823 39.13C28.1523 39.13 29.1323 40.11 29.1323 41.37V45.5H28.2223ZM27.8723 43.036V42.7C25.6323 42.7 25.2123 43.12 25.2123 43.75C25.2123 44.1 25.5623 44.45 26.1923 44.45C27.2563 44.45 27.8723 43.82 27.8723 43.036ZM30.7434 43.4V40.39H29.6234V39.2H30.1134C30.6034 39.2 30.9534 38.85 30.9534 38.36V37.52H32.0034V39.2H33.4034V40.39H32.0034V43.4C32.0034 43.96 32.4234 44.38 32.9834 44.38C33.0814 44.38 33.1794 44.366 33.2774 44.352L33.4034 44.31V45.43C33.3474 45.458 33.2774 45.486 33.2074 45.5C33.0674 45.542 32.8994 45.57 32.7034 45.57C31.5834 45.57 30.7434 44.73 30.7434 43.4ZM38.3762 43.68H39.7062C39.3002 44.73 38.4462 45.57 36.9762 45.57C35.2962 45.57 33.9662 44.24 33.9662 42.35C33.9662 40.46 35.2822 39.13 36.9062 39.13C38.5302 39.13 39.8462 40.46 39.8462 42.35C39.8462 42.504 39.8182 42.644 39.8042 42.742L39.7762 42.91H35.2962C35.3662 43.694 36.0662 44.38 36.9762 44.38C37.7462 44.38 38.1662 43.96 38.3762 43.68ZM35.2962 41.86H38.6562C38.5022 40.95 37.9002 40.32 36.9062 40.32C36.0662 40.32 35.4502 40.95 35.2962 41.86Z" fill="#29715B"/>
</svg>
