<svg width="45" height="50" viewBox="0 0 45 50" fill="none" xmlns="http://www.w3.org/2000/svg">
<rect y="0.5" width="45" height="32" rx="16" fill="#00C059"/>
<path d="M14.3638 15.1139L14.364 15.1137L21.8638 7.61388C21.8639 7.61384 21.8639 7.61379 21.864 7.61374C22.0327 7.44518 22.2615 7.35049 22.5 7.35049C22.7385 7.35049 22.9673 7.44518 23.136 7.61374C23.1361 7.61379 23.1361 7.61384 23.1362 7.61388L30.636 15.1137L30.6362 15.1139C30.805 15.2826 30.8999 15.5114 30.9 15.7501V24.7498C30.9 24.7896 30.8842 24.8277 30.8561 24.8559C30.8279 24.884 30.7898 24.8998 30.75 24.8998H25.5C25.4602 24.8998 25.4221 24.884 25.3939 24.8559C25.3658 24.8277 25.35 24.7896 25.35 24.7498V19.8748C25.35 19.6162 25.2473 19.3682 25.0644 19.1854C24.8816 19.0025 24.6336 18.8998 24.375 18.8998H20.625C20.3664 18.8998 20.1184 19.0025 19.9356 19.1854C19.7527 19.3682 19.65 19.6162 19.65 19.8748V24.7498C19.65 24.7896 19.6342 24.8277 19.6061 24.8559C19.5779 24.884 19.5398 24.8998 19.5 24.8998H14.25C14.2102 24.8998 14.1721 24.884 14.1439 24.8559C14.1158 24.8277 14.1 24.7896 14.1 24.7498L14.1 15.7501C14.1 15.75 14.1 15.75 14.1 15.75C14.1 15.7499 14.1 15.7498 14.1 15.7498C14.1002 15.5112 14.1951 15.2825 14.3638 15.1139Z" stroke="white" stroke-width="1.2"/>
<path d="M7.55 45.5V36.68H8.88V40.39H12.94V36.68H14.27V45.5H12.94V41.65H8.88V45.5H7.55ZM18.3984 44.38C19.3084 44.38 20.1484 43.54 20.1484 42.35C20.1484 41.16 19.3084 40.32 18.3984 40.32C17.4884 40.32 16.6484 41.16 16.6484 42.35C16.6484 43.54 17.4884 44.38 18.3984 44.38ZM18.3984 45.57C16.7184 45.57 15.3884 44.24 15.3884 42.35C15.3884 40.46 16.7184 39.13 18.3984 39.13C20.0784 39.13 21.4084 40.46 21.4084 42.35C21.4084 44.24 20.0784 45.57 18.3984 45.57ZM22.3184 45.5V39.2H23.2284L23.5084 39.83C23.6204 39.704 23.7604 39.578 23.9144 39.48C24.1804 39.312 24.5584 39.13 25.0484 39.13C25.6504 39.13 26.0704 39.382 26.3644 39.62C26.5324 39.774 26.6724 39.928 26.7984 40.11C26.9244 39.928 27.0924 39.774 27.2744 39.62C27.5964 39.382 28.0584 39.13 28.6884 39.13C29.8644 39.13 30.8584 40.096 30.8584 41.72V45.5H29.5984V41.72C29.5984 40.88 29.0384 40.32 28.4084 40.32C27.7784 40.32 27.2184 40.88 27.2184 41.72V45.5H25.9584V41.72C25.9584 40.88 25.3984 40.32 24.7684 40.32C24.1384 40.32 23.5784 40.88 23.5784 41.72V45.5H22.3184ZM36.1029 43.68H37.4329C37.0269 44.73 36.1729 45.57 34.7029 45.57C33.0229 45.57 31.6929 44.24 31.6929 42.35C31.6929 40.46 33.0089 39.13 34.6329 39.13C36.2569 39.13 37.5729 40.46 37.5729 42.35C37.5729 42.504 37.5449 42.644 37.5309 42.742L37.5029 42.91H33.0229C33.0929 43.694 33.7929 44.38 34.7029 44.38C35.4729 44.38 35.8929 43.96 36.1029 43.68ZM33.0229 41.86H36.3829C36.2289 40.95 35.6269 40.32 34.6329 40.32C33.7929 40.32 33.1769 40.95 33.0229 41.86Z" fill="#29715B"/>
</svg>
