<svg width="53" height="53" viewBox="0 0 53 53" fill="none" xmlns="http://www.w3.org/2000/svg">
<path d="M18.3638 14.6141L18.364 14.6139L25.8638 7.11407C25.8639 7.11402 25.8639 7.11397 25.864 7.11393C26.0327 6.94536 26.2615 6.85067 26.5 6.85067C26.7386 6.85067 26.9674 6.94541 27.1362 7.11407L34.636 14.6139L34.6362 14.6141C34.805 14.7828 34.8999 15.0116 34.9 15.2503V24.25C34.9 24.2898 34.8842 24.3279 34.8561 24.356C34.8279 24.3842 34.7898 24.4 34.75 24.4H29.5C29.4602 24.4 29.4221 24.3842 29.3939 24.356C29.3658 24.3279 29.35 24.2898 29.35 24.25V19.375C29.35 19.1164 29.2473 18.8684 29.0644 18.6855C28.8816 18.5027 28.6336 18.4 28.375 18.4H24.625C24.3664 18.4 24.1184 18.5027 23.9356 18.6855C23.7527 18.8684 23.65 19.1164 23.65 19.375V24.25C23.65 24.2898 23.6342 24.3279 23.6061 24.356L24.0303 24.7803L23.6061 24.356C23.5779 24.3842 23.5398 24.4 23.5 24.4H18.25C18.2102 24.4 18.1721 24.3842 18.1439 24.356C18.1158 24.3279 18.1 24.2898 18.1 24.25L18.1 15.2503C18.1 15.2502 18.1 15.2502 18.1 15.2501C18.1 15.2501 18.1 15.25 18.1 15.25C18.1002 15.0114 18.1951 14.7827 18.3638 14.6141Z" stroke="#71717A" stroke-width="1.2"/>
<path d="M11.62 45V36.18H12.74V40.03H17.01V36.18H18.13V45H17.01V41.01H12.74V45H11.62ZM22.26 44.09C23.226 44.09 24.15 43.194 24.15 41.85C24.15 40.506 23.226 39.61 22.26 39.61C21.28 39.61 20.37 40.506 20.37 41.85C20.37 43.194 21.28 44.09 22.26 44.09ZM22.26 45.07C20.636 45.07 19.32 43.74 19.32 41.85C19.32 39.96 20.636 38.63 22.26 38.63C23.884 38.63 25.2 39.96 25.2 41.85C25.2 43.74 23.884 45.07 22.26 45.07ZM26.1833 45V38.7H26.9533L27.2333 39.4C27.3313 39.26 27.4573 39.134 27.6113 39.022C27.8773 38.812 28.2273 38.63 28.7733 38.63C29.4033 38.63 29.8373 38.91 30.1173 39.19C30.2853 39.358 30.4253 39.54 30.5233 39.75C30.6493 39.54 30.7893 39.358 30.9713 39.19C31.2933 38.91 31.7413 38.63 32.4133 38.63C33.5333 38.63 34.5133 39.596 34.5133 41.22V45H33.4633V41.22C33.4633 40.156 32.9173 39.61 32.2033 39.61C31.4893 39.61 30.8733 40.226 30.8733 41.22V45H29.8233V41.22C29.8233 40.156 29.2773 39.61 28.5633 39.61C27.8773 39.61 27.2333 40.282 27.2333 41.22V45H26.1833ZM39.9695 43.32H41.0895C40.6695 44.23 39.8295 45.07 38.4295 45.07C36.7495 45.07 35.4195 43.74 35.4195 41.85C35.4195 39.96 36.8335 38.63 38.3595 38.63C39.8995 38.63 41.2295 39.876 41.2295 41.78C41.2295 41.962 41.2015 42.088 41.1875 42.186L41.1595 42.34H36.5395C36.6095 43.25 37.4355 44.09 38.4295 44.09C39.2555 44.09 39.7595 43.614 39.9695 43.32ZM36.5395 41.43H40.1795C40.0255 40.38 39.2695 39.61 38.3595 39.61C37.4495 39.61 36.6935 40.38 36.5395 41.43Z" fill="#71717A"/>
</svg>
