<svg width="54" height="53" viewBox="0 0 54 53" fill="none" xmlns="http://www.w3.org/2000/svg">
<path d="M29 22V23C29 24.1046 28.1046 25 27 25V25C25.8954 25 25 24.1046 25 23V22M29 22C29 22 29.2248 21.3006 29.6667 19.9444C30.0542 18.755 31 18.7266 31 16.3333C31 13.9401 29.2091 12 27 12C24.7909 12 23 13.9401 23 16.3333C23 18.7266 23.9458 18.755 24.3333 19.9444C24.7752 21.3006 25 22 25 22M29 22H27H25M19 15H18M21.5 10.5L20.5 9.5M27 7V8M32.5 10.5L33.5 9.5M36 15H35" stroke="#71717A" stroke-width="1.5" stroke-linecap="round" stroke-linejoin="round"/>
<path d="M7.62 45V36.18H8.74V45H7.62ZM10.3533 45V38.7H11.1233L11.4033 39.4C11.5293 39.26 11.6833 39.134 11.8653 39.022C12.1873 38.812 12.6213 38.63 13.2233 38.63C14.5533 38.63 15.6733 39.75 15.6733 41.36V45H14.6233V41.36C14.6233 40.31 13.9093 39.61 13.0833 39.61C12.0893 39.61 11.4033 40.296 11.4033 41.36V45H10.3533ZM16.5816 43.11H17.6316C17.7016 43.67 18.1076 44.09 18.8916 44.09C19.6056 44.09 20.0116 43.67 20.0116 43.18C20.0116 41.766 16.7216 42.844 16.7216 40.45C16.7216 39.484 17.5616 38.63 18.8216 38.63C20.1656 38.63 20.9216 39.4 20.9916 40.52H19.9416C19.8716 39.96 19.5356 39.61 18.8216 39.61C18.1916 39.61 17.7716 40.016 17.7716 40.45C17.7716 41.864 21.0616 40.8 21.0616 43.18C21.0616 44.23 20.2216 45.07 18.8916 45.07C17.4916 45.07 16.6516 44.23 16.5816 43.11ZM22.1051 45V38.7H23.1551V45H22.1051ZM21.9651 36.922C21.9651 36.53 22.2451 36.25 22.6231 36.25C23.0151 36.25 23.2951 36.53 23.2951 36.922C23.2951 37.3 23.0151 37.58 22.6231 37.58C22.2451 37.58 21.9651 37.3 21.9651 36.922ZM24.4862 45.49H25.5362C25.7462 45.98 26.1662 46.4 27.0762 46.4C28.1402 46.4 28.8262 45.7 28.8262 44.79V43.95C28.7002 44.104 28.5602 44.244 28.3922 44.37C28.0982 44.58 27.6362 44.79 27.0062 44.79C25.3962 44.79 24.1362 43.544 24.1362 41.71C24.1362 39.876 25.3962 38.63 27.0062 38.63C27.6362 38.63 28.0982 38.812 28.3922 39.022C28.5602 39.134 28.7002 39.26 28.8262 39.4L29.1062 38.7H29.8762V44.79C29.8762 46.26 28.7562 47.38 27.0762 47.38C25.6342 47.38 24.7522 46.54 24.4862 45.49ZM27.0762 43.81C28.1262 43.81 28.9662 42.97 28.9662 41.71C28.9662 40.45 28.1262 39.61 27.0762 39.61C26.0262 39.61 25.1862 40.45 25.1862 41.71C25.1862 42.97 26.0262 43.81 27.0762 43.81ZM31.3429 45V36.18H32.3929V39.47C32.5189 39.316 32.6729 39.176 32.8549 39.05C33.1769 38.84 33.6109 38.63 34.2129 38.63C35.5429 38.63 36.6629 39.75 36.6629 41.36V45H35.6129V41.36C35.6129 40.31 34.8989 39.61 34.0729 39.61C33.0789 39.61 32.3929 40.296 32.3929 41.36V45H31.3429ZM38.4796 42.97V39.68H37.3596V38.7H37.8496C38.3676 38.7 38.6196 38.448 38.6196 37.93V37.02H39.5296V38.7H40.9296V39.68H39.5296V42.97C39.5296 43.684 39.9496 44.09 40.5796 44.09C40.6776 44.09 40.7616 44.076 40.8316 44.062L40.9296 44.02V44.93C40.8876 44.958 40.8316 44.986 40.7756 45C40.6496 45.042 40.4956 45.07 40.2996 45.07C39.3336 45.07 38.4796 44.23 38.4796 42.97ZM41.4973 43.11H42.5473C42.6173 43.67 43.0233 44.09 43.8073 44.09C44.5213 44.09 44.9273 43.67 44.9273 43.18C44.9273 41.766 41.6373 42.844 41.6373 40.45C41.6373 39.484 42.4773 38.63 43.7373 38.63C45.0813 38.63 45.8373 39.4 45.9073 40.52H44.8573C44.7873 39.96 44.4513 39.61 43.7373 39.61C43.1073 39.61 42.6873 40.016 42.6873 40.45C42.6873 41.864 45.9773 40.8 45.9773 43.18C45.9773 44.23 45.1373 45.07 43.8073 45.07C42.4073 45.07 41.5673 44.23 41.4973 43.11Z" fill="#71717A"/>
</svg>
