<svg width="45" height="50" viewBox="0 0 45 50" fill="none" xmlns="http://www.w3.org/2000/svg">
<rect y="0.5" width="45" height="32" rx="16" fill="#00C059"/>
<path d="M25 22.5V23.5C25 24.6046 24.1046 25.5 23 25.5V25.5C21.8954 25.5 21 24.6046 21 23.5V22.5M25 22.5C25 22.5 25.2248 21.8006 25.6667 20.4444C26.0542 19.255 27 19.2266 27 16.8333C27 14.4401 25.2091 12.5 23 12.5C20.7909 12.5 19 14.4401 19 16.8333C19 19.2266 19.9458 19.255 20.3333 20.4444C20.7752 21.8006 21 22.5 21 22.5M25 22.5H23H21M15 15.5H14M17.5 11L16.5 10M23 7.5V8.5M28.5 11L29.5 10M32 15.5H31" stroke="white" stroke-width="1.5" stroke-linecap="round" stroke-linejoin="round"/>
<path d="M3.55 45.5V36.68H4.88V45.5H3.55ZM6.35164 45.5V39.2H7.26164L7.54164 39.83C7.66764 39.704 7.80764 39.578 7.97564 39.48C8.26964 39.312 8.73164 39.13 9.36164 39.13C10.7616 39.13 11.8816 40.25 11.8816 41.86V45.5H10.6216V41.86C10.6216 41.034 9.93564 40.32 9.15164 40.32C8.29764 40.32 7.61164 41.034 7.61164 41.86V45.5H6.35164ZM12.7184 43.47H13.9784C14.0484 44.03 14.3844 44.38 15.0984 44.38C15.8824 44.38 16.2184 44.044 16.2184 43.61C16.2184 42.49 12.8584 43.246 12.8584 41.02C12.8584 39.97 13.6984 39.13 15.0284 39.13C16.4984 39.13 17.2684 39.9 17.3384 41.09H16.0784C16.0084 40.656 15.6584 40.32 15.0284 40.32C14.3984 40.32 14.0484 40.67 14.0484 41.02C14.0484 42.14 17.4084 41.384 17.4084 43.61C17.4084 44.73 16.5684 45.57 15.0984 45.57C13.5444 45.57 12.7884 44.814 12.7184 43.47ZM18.3222 45.5V39.2H19.5822V45.5H18.3222ZM18.9522 36.68C19.3862 36.68 19.7222 37.016 19.7222 37.45C19.7222 37.884 19.3862 38.22 18.9522 38.22C18.5182 38.22 18.1822 37.884 18.1822 37.45C18.1822 37.016 18.5182 36.68 18.9522 36.68ZM20.7716 45.92H22.0316C22.2416 46.354 22.6616 46.76 23.5016 46.76C24.4956 46.76 25.1116 46.13 25.1116 45.22V44.59C24.9856 44.716 24.8456 44.842 24.6776 44.94C24.3836 45.122 23.9636 45.29 23.3616 45.29C21.8216 45.29 20.4916 43.946 20.4916 42.21C20.4916 40.474 21.8216 39.13 23.3616 39.13C23.9916 39.13 24.4536 39.312 24.7476 39.48C24.9156 39.578 25.0556 39.704 25.1816 39.83L25.4616 39.2H26.3716V45.22C26.3716 46.76 25.2516 47.88 23.5016 47.88C21.9756 47.88 21.0376 46.97 20.7716 45.92ZM23.5156 44.1C24.4116 44.1 25.2516 43.26 25.2516 42.21C25.2516 41.16 24.4116 40.32 23.5016 40.32C22.5916 40.32 21.7516 41.16 21.7516 42.21C21.7516 43.26 22.5916 44.1 23.5156 44.1ZM27.6967 45.5V36.68H28.9567V39.83C29.0827 39.704 29.2367 39.578 29.4047 39.48C29.6987 39.312 30.1467 39.13 30.7067 39.13C32.1067 39.13 33.2267 40.25 33.2267 41.86V45.5H31.9667V41.86C31.9667 41.034 31.2807 40.32 30.4967 40.32C29.6427 40.32 28.9567 41.034 28.9567 41.86V45.5H27.6967ZM34.9718 43.4V40.39H33.8518V39.2H34.3418C34.8318 39.2 35.1818 38.85 35.1818 38.36V37.52H36.2318V39.2H37.6318V40.39H36.2318V43.4C36.2318 43.96 36.6518 44.38 37.2118 44.38C37.3098 44.38 37.4078 44.366 37.5058 44.352L37.6318 44.31V45.43C37.5758 45.458 37.5058 45.486 37.4358 45.5C37.2958 45.542 37.1278 45.57 36.9318 45.57C35.8118 45.57 34.9718 44.73 34.9718 43.4ZM38.1945 43.47H39.4545C39.5245 44.03 39.8605 44.38 40.5745 44.38C41.3585 44.38 41.6945 44.044 41.6945 43.61C41.6945 42.49 38.3345 43.246 38.3345 41.02C38.3345 39.97 39.1745 39.13 40.5045 39.13C41.9745 39.13 42.7445 39.9 42.8145 41.09H41.5545C41.4845 40.656 41.1345 40.32 40.5045 40.32C39.8745 40.32 39.5245 40.67 39.5245 41.02C39.5245 42.14 42.8845 41.384 42.8845 43.61C42.8845 44.73 42.0445 45.57 40.5745 45.57C39.0205 45.57 38.2645 44.814 38.1945 43.47Z" fill="#29715B"/>
</svg>
