<svg width="65" height="49" viewBox="0 0 65 49" fill="none" xmlns="http://www.w3.org/2000/svg">
<rect x="10" width="45" height="32" rx="16" fill="#29715B"/>
<path d="M27.25 13.75C27.25 13.5511 27.329 13.3603 27.4697 13.2197C27.6103 13.079 27.8011 13 28 13H37C37.1989 13 37.3897 13.079 37.5303 13.2197C37.671 13.3603 37.75 13.5511 37.75 13.75C37.75 13.9489 37.671 14.1397 37.5303 14.2803C37.3897 14.421 37.1989 14.5 37 14.5H28C27.8011 14.5 27.6103 14.421 27.4697 14.2803C27.329 14.1397 27.25 13.9489 27.25 13.75ZM28 17.5H37C37.1989 17.5 37.3897 17.421 37.5303 17.2803C37.671 17.1397 37.75 16.9489 37.75 16.75C37.75 16.5511 37.671 16.3603 37.5303 16.2197C37.3897 16.079 37.1989 16 37 16H28C27.8011 16 27.6103 16.079 27.4697 16.2197C27.329 16.3603 27.25 16.5511 27.25 16.75C27.25 16.9489 27.329 17.1397 27.4697 17.2803C27.6103 17.421 27.8011 17.5 28 17.5ZM42.25 9.25V23.5C42.2499 23.6278 42.2172 23.7535 42.1549 23.8651C42.0926 23.9768 42.0028 24.0706 41.894 24.1378C41.7853 24.2049 41.6611 24.2432 41.5334 24.2489C41.4057 24.2546 41.2787 24.2275 41.1644 24.1703L38.5 22.8381L35.8356 24.1703C35.7314 24.2225 35.6165 24.2496 35.5 24.2496C35.3835 24.2496 35.2686 24.2225 35.1644 24.1703L32.5 22.8381L29.8356 24.1703C29.7314 24.2225 29.6165 24.2496 29.5 24.2496C29.3835 24.2496 29.2686 24.2225 29.1644 24.1703L26.5 22.8381L23.8356 24.1703C23.7213 24.2275 23.5943 24.2546 23.4666 24.2489C23.3389 24.2432 23.2147 24.2049 23.106 24.1378C22.9972 24.0706 22.9074 23.9768 22.8451 23.8651C22.7828 23.7535 22.7501 23.6278 22.75 23.5V9.25C22.75 8.85218 22.908 8.47064 23.1893 8.18934C23.4706 7.90804 23.8522 7.75 24.25 7.75H40.75C41.1478 7.75 41.5294 7.90804 41.8107 8.18934C42.092 8.47064 42.25 8.85218 42.25 9.25ZM40.75 9.25H24.25V22.2869L26.1644 21.3287C26.2686 21.2766 26.3835 21.2495 26.5 21.2495C26.6165 21.2495 26.7314 21.2766 26.8356 21.3287L29.5 22.6619L32.1644 21.3287C32.2686 21.2766 32.3835 21.2495 32.5 21.2495C32.6165 21.2495 32.7314 21.2766 32.8356 21.3287L35.5 22.6619L38.1644 21.3287C38.2686 21.2766 38.3835 21.2495 38.5 21.2495C38.6165 21.2495 38.7314 21.2766 38.8356 21.3287L40.75 22.2869V9.25Z" fill="white"/>
<path d="M2.87 45V37.16H0.21V36.18H6.65V37.16H3.99V45H2.87ZM6.65602 45V38.7H7.42602L7.70602 39.4C7.83202 39.26 7.98602 39.134 8.16802 39.022C8.49002 38.812 8.92402 38.63 9.52602 38.63H9.66602V39.68H9.38602C8.39202 39.68 7.70602 40.366 7.70602 41.43V45H6.65602ZM14.4233 45L14.1433 44.3C14.0033 44.454 13.8493 44.58 13.6673 44.692C13.3453 44.902 12.8833 45.07 12.2533 45.07C10.9933 45.07 10.1533 44.23 10.1533 43.18C10.1533 41.99 10.9933 41.15 14.1433 41.15V40.8C14.1433 40.17 13.5973 39.61 12.8133 39.61C12.0293 39.61 11.7073 39.96 11.5533 40.52H10.4333C10.5873 39.47 11.4133 38.63 12.8133 38.63C14.2133 38.63 15.1933 39.624 15.1933 40.8V45H14.4233ZM14.1433 42.62V42.13C11.6233 42.13 11.2033 42.55 11.2033 43.25C11.2033 43.684 11.6233 44.09 12.2533 44.09C13.3733 44.09 14.1433 43.32 14.1433 42.62ZM16.5211 45V38.7H17.2911L17.5711 39.4C17.6971 39.26 17.8511 39.134 18.0331 39.022C18.3551 38.812 18.7891 38.63 19.3911 38.63C20.7211 38.63 21.8411 39.75 21.8411 41.36V45H20.7911V41.36C20.7911 40.31 20.0771 39.61 19.2511 39.61C18.2571 39.61 17.5711 40.296 17.5711 41.36V45H16.5211ZM22.7495 43.11H23.7995C23.8695 43.67 24.2755 44.09 25.0595 44.09C25.7735 44.09 26.1795 43.67 26.1795 43.18C26.1795 41.766 22.8895 42.844 22.8895 40.45C22.8895 39.484 23.7295 38.63 24.9895 38.63C26.3335 38.63 27.0895 39.4 27.1595 40.52H26.1095C26.0395 39.96 25.7035 39.61 24.9895 39.61C24.3595 39.61 23.9395 40.016 23.9395 40.45C23.9395 41.864 27.2295 40.8 27.2295 43.18C27.2295 44.23 26.3895 45.07 25.0595 45.07C23.6595 45.07 22.8195 44.23 22.7495 43.11ZM32.2629 45L31.9829 44.3C31.8429 44.454 31.6889 44.58 31.5069 44.692C31.1849 44.902 30.7229 45.07 30.0929 45.07C28.8329 45.07 27.9929 44.23 27.9929 43.18C27.9929 41.99 28.8329 41.15 31.9829 41.15V40.8C31.9829 40.17 31.4369 39.61 30.6529 39.61C29.8689 39.61 29.5469 39.96 29.3929 40.52H28.2729C28.4269 39.47 29.2529 38.63 30.6529 38.63C32.0529 38.63 33.0329 39.624 33.0329 40.8V45H32.2629ZM31.9829 42.62V42.13C29.4629 42.13 29.0429 42.55 29.0429 43.25C29.0429 43.684 29.4629 44.09 30.0929 44.09C31.2129 44.09 31.9829 43.32 31.9829 42.62ZM38.5607 42.76H39.6107C39.3167 44.034 38.2807 45.07 36.8807 45.07C35.2567 45.07 33.9407 43.74 33.9407 41.85C33.9407 39.96 35.2567 38.63 36.8807 38.63C38.2807 38.63 39.3167 39.666 39.6107 40.94H38.5607C38.3367 40.24 37.7067 39.61 36.8807 39.61C35.9007 39.61 34.9907 40.506 34.9907 41.85C34.9907 43.194 35.9007 44.09 36.8807 44.09C37.7067 44.09 38.3367 43.46 38.5607 42.76ZM41.0069 42.97V39.68H39.8869V38.7H40.3769C40.8949 38.7 41.1469 38.448 41.1469 37.93V37.02H42.0569V38.7H43.4569V39.68H42.0569V42.97C42.0569 43.684 42.4769 44.09 43.1069 44.09C43.2049 44.09 43.2889 44.076 43.3589 44.062L43.4569 44.02V44.93C43.4149 44.958 43.3589 44.986 43.3029 45C43.1769 45.042 43.0229 45.07 42.8269 45.07C41.8609 45.07 41.0069 44.23 41.0069 42.97ZM44.5812 45V38.7H45.6312V45H44.5812ZM44.4412 36.922C44.4412 36.53 44.7212 36.25 45.0992 36.25C45.4912 36.25 45.7712 36.53 45.7712 36.922C45.7712 37.3 45.4912 37.58 45.0992 37.58C44.7212 37.58 44.4412 37.3 44.4412 36.922ZM49.5523 44.09C50.5183 44.09 51.4423 43.194 51.4423 41.85C51.4423 40.506 50.5183 39.61 49.5523 39.61C48.5723 39.61 47.6623 40.506 47.6623 41.85C47.6623 43.194 48.5723 44.09 49.5523 44.09ZM49.5523 45.07C47.9283 45.07 46.6123 43.74 46.6123 41.85C46.6123 39.96 47.9283 38.63 49.5523 38.63C51.1763 38.63 52.4923 39.96 52.4923 41.85C52.4923 43.74 51.1763 45.07 49.5523 45.07ZM53.4756 45V38.7H54.2456L54.5256 39.4C54.6516 39.26 54.8056 39.134 54.9876 39.022C55.3096 38.812 55.7436 38.63 56.3456 38.63C57.6756 38.63 58.7956 39.75 58.7956 41.36V45H57.7456V41.36C57.7456 40.31 57.0316 39.61 56.2056 39.61C55.2116 39.61 54.5256 40.296 54.5256 41.36V45H53.4756ZM59.704 43.11H60.754C60.824 43.67 61.23 44.09 62.014 44.09C62.728 44.09 63.134 43.67 63.134 43.18C63.134 41.766 59.844 42.844 59.844 40.45C59.844 39.484 60.684 38.63 61.944 38.63C63.288 38.63 64.044 39.4 64.114 40.52H63.064C62.994 39.96 62.658 39.61 61.944 39.61C61.314 39.61 60.894 40.016 60.894 40.45C60.894 41.864 64.184 40.8 64.184 43.18C64.184 44.23 63.344 45.07 62.014 45.07C60.614 45.07 59.774 44.23 59.704 43.11Z" fill="#29715B"/>
</svg>
