<svg width="73" height="53" viewBox="0 0 73 53" fill="none" xmlns="http://www.w3.org/2000/svg">
<path d="M31.25 13.75C31.25 13.5511 31.329 13.3603 31.4697 13.2197C31.6103 13.079 31.8011 13 32 13H41C41.1989 13 41.3897 13.079 41.5303 13.2197C41.671 13.3603 41.75 13.5511 41.75 13.75C41.75 13.9489 41.671 14.1397 41.5303 14.2803C41.3897 14.421 41.1989 14.5 41 14.5H32C31.8011 14.5 31.6103 14.421 31.4697 14.2803C31.329 14.1397 31.25 13.9489 31.25 13.75ZM32 17.5H41C41.1989 17.5 41.3897 17.421 41.5303 17.2803C41.671 17.1397 41.75 16.9489 41.75 16.75C41.75 16.5511 41.671 16.3603 41.5303 16.2197C41.3897 16.079 41.1989 16 41 16H32C31.8011 16 31.6103 16.079 31.4697 16.2197C31.329 16.3603 31.25 16.5511 31.25 16.75C31.25 16.9489 31.329 17.1397 31.4697 17.2803C31.6103 17.421 31.8011 17.5 32 17.5ZM46.25 9.25V23.5C46.2499 23.6278 46.2172 23.7535 46.1549 23.8651C46.0926 23.9768 46.0028 24.0706 45.894 24.1378C45.7853 24.2049 45.6611 24.2432 45.5334 24.2489C45.4057 24.2546 45.2787 24.2275 45.1644 24.1703L42.5 22.8381L39.8356 24.1703C39.7314 24.2225 39.6165 24.2496 39.5 24.2496C39.3835 24.2496 39.2686 24.2225 39.1644 24.1703L36.5 22.8381L33.8356 24.1703C33.7314 24.2225 33.6165 24.2496 33.5 24.2496C33.3835 24.2496 33.2686 24.2225 33.1644 24.1703L30.5 22.8381L27.8356 24.1703C27.7213 24.2275 27.5943 24.2546 27.4666 24.2489C27.3389 24.2432 27.2147 24.2049 27.106 24.1378C26.9972 24.0706 26.9074 23.9768 26.8451 23.8651C26.7828 23.7535 26.7501 23.6278 26.75 23.5V9.25C26.75 8.85218 26.908 8.47064 27.1893 8.18934C27.4706 7.90804 27.8522 7.75 28.25 7.75H44.75C45.1478 7.75 45.5294 7.90804 45.8107 8.18934C46.092 8.47064 46.25 8.85218 46.25 9.25ZM44.75 9.25H28.25V22.2869L30.1644 21.3287C30.2686 21.2766 30.3835 21.2495 30.5 21.2495C30.6165 21.2495 30.7314 21.2766 30.8356 21.3287L33.5 22.6619L36.1644 21.3287C36.2686 21.2766 36.3835 21.2495 36.5 21.2495C36.6165 21.2495 36.7314 21.2766 36.8356 21.3287L39.5 22.6619L42.1644 21.3287C42.2686 21.2766 42.3835 21.2495 42.5 21.2495C42.6165 21.2495 42.7314 21.2766 42.8356 21.3287L44.75 22.2869V9.25Z" fill="#71717A"/>
<path d="M6.87 45V37.16H4.21V36.18H10.65V37.16H7.99V45H6.87ZM10.656 45V38.7H11.426L11.706 39.4C11.832 39.26 11.986 39.134 12.168 39.022C12.49 38.812 12.924 38.63 13.526 38.63H13.666V39.68H13.386C12.392 39.68 11.706 40.366 11.706 41.43V45H10.656ZM18.4233 45L18.1433 44.3C18.0033 44.454 17.8493 44.58 17.6673 44.692C17.3453 44.902 16.8833 45.07 16.2533 45.07C14.9933 45.07 14.1533 44.23 14.1533 43.18C14.1533 41.99 14.9933 41.15 18.1433 41.15V40.8C18.1433 40.17 17.5973 39.61 16.8133 39.61C16.0293 39.61 15.7073 39.96 15.5533 40.52H14.4333C14.5873 39.47 15.4133 38.63 16.8133 38.63C18.2133 38.63 19.1933 39.624 19.1933 40.8V45H18.4233ZM18.1433 42.62V42.13C15.6233 42.13 15.2033 42.55 15.2033 43.25C15.2033 43.684 15.6233 44.09 16.2533 44.09C17.3733 44.09 18.1433 43.32 18.1433 42.62ZM20.5211 45V38.7H21.2911L21.5711 39.4C21.6971 39.26 21.8511 39.134 22.0331 39.022C22.3551 38.812 22.7891 38.63 23.3911 38.63C24.7211 38.63 25.8411 39.75 25.8411 41.36V45H24.7911V41.36C24.7911 40.31 24.0771 39.61 23.2511 39.61C22.2571 39.61 21.5711 40.296 21.5711 41.36V45H20.5211ZM26.7495 43.11H27.7995C27.8695 43.67 28.2755 44.09 29.0595 44.09C29.7735 44.09 30.1795 43.67 30.1795 43.18C30.1795 41.766 26.8895 42.844 26.8895 40.45C26.8895 39.484 27.7295 38.63 28.9895 38.63C30.3335 38.63 31.0895 39.4 31.1595 40.52H30.1095C30.0395 39.96 29.7035 39.61 28.9895 39.61C28.3595 39.61 27.9395 40.016 27.9395 40.45C27.9395 41.864 31.2295 40.8 31.2295 43.18C31.2295 44.23 30.3895 45.07 29.0595 45.07C27.6595 45.07 26.8195 44.23 26.7495 43.11ZM36.2629 45L35.9829 44.3C35.8429 44.454 35.6889 44.58 35.5069 44.692C35.1849 44.902 34.7229 45.07 34.0929 45.07C32.8329 45.07 31.9929 44.23 31.9929 43.18C31.9929 41.99 32.8329 41.15 35.9829 41.15V40.8C35.9829 40.17 35.4369 39.61 34.6529 39.61C33.8689 39.61 33.5469 39.96 33.3929 40.52H32.2729C32.4269 39.47 33.2529 38.63 34.6529 38.63C36.0529 38.63 37.0329 39.624 37.0329 40.8V45H36.2629ZM35.9829 42.62V42.13C33.4629 42.13 33.0429 42.55 33.0429 43.25C33.0429 43.684 33.4629 44.09 34.0929 44.09C35.2129 44.09 35.9829 43.32 35.9829 42.62ZM42.5607 42.76H43.6107C43.3167 44.034 42.2807 45.07 40.8807 45.07C39.2567 45.07 37.9407 43.74 37.9407 41.85C37.9407 39.96 39.2567 38.63 40.8807 38.63C42.2807 38.63 43.3167 39.666 43.6107 40.94H42.5607C42.3367 40.24 41.7067 39.61 40.8807 39.61C39.9007 39.61 38.9907 40.506 38.9907 41.85C38.9907 43.194 39.9007 44.09 40.8807 44.09C41.7067 44.09 42.3367 43.46 42.5607 42.76ZM45.0069 42.97V39.68H43.8869V38.7H44.3769C44.8949 38.7 45.1469 38.448 45.1469 37.93V37.02H46.0569V38.7H47.4569V39.68H46.0569V42.97C46.0569 43.684 46.4769 44.09 47.1069 44.09C47.2049 44.09 47.2889 44.076 47.3589 44.062L47.4569 44.02V44.93C47.4149 44.958 47.3589 44.986 47.3029 45C47.1769 45.042 47.0229 45.07 46.8269 45.07C45.8609 45.07 45.0069 44.23 45.0069 42.97ZM48.5812 45V38.7H49.6312V45H48.5812ZM48.4412 36.922C48.4412 36.53 48.7212 36.25 49.0992 36.25C49.4912 36.25 49.7712 36.53 49.7712 36.922C49.7712 37.3 49.4912 37.58 49.0992 37.58C48.7212 37.58 48.4412 37.3 48.4412 36.922ZM53.5523 44.09C54.5183 44.09 55.4423 43.194 55.4423 41.85C55.4423 40.506 54.5183 39.61 53.5523 39.61C52.5723 39.61 51.6623 40.506 51.6623 41.85C51.6623 43.194 52.5723 44.09 53.5523 44.09ZM53.5523 45.07C51.9283 45.07 50.6123 43.74 50.6123 41.85C50.6123 39.96 51.9283 38.63 53.5523 38.63C55.1763 38.63 56.4923 39.96 56.4923 41.85C56.4923 43.74 55.1763 45.07 53.5523 45.07ZM57.4756 45V38.7H58.2456L58.5256 39.4C58.6516 39.26 58.8056 39.134 58.9876 39.022C59.3096 38.812 59.7436 38.63 60.3456 38.63C61.6756 38.63 62.7956 39.75 62.7956 41.36V45H61.7456V41.36C61.7456 40.31 61.0316 39.61 60.2056 39.61C59.2116 39.61 58.5256 40.296 58.5256 41.36V45H57.4756ZM63.704 43.11H64.754C64.824 43.67 65.23 44.09 66.014 44.09C66.728 44.09 67.134 43.67 67.134 43.18C67.134 41.766 63.844 42.844 63.844 40.45C63.844 39.484 64.684 38.63 65.944 38.63C67.288 38.63 68.044 39.4 68.114 40.52H67.064C66.994 39.96 66.658 39.61 65.944 39.61C65.314 39.61 64.894 40.016 64.894 40.45C64.894 41.864 68.184 40.8 68.184 43.18C68.184 44.23 67.344 45.07 66.014 45.07C64.614 45.07 63.774 44.23 63.704 43.11Z" fill="#71717A"/>
</svg>
